<mxfile host="app.diagrams.net" modified="2022-01-27T15:07:56.341Z" agent="5.0 (Windows NT 10.0; Win64; x64) AppleWebKit/537.36 (KHTML, like Gecko) Chrome/97.0.4692.99 Safari/537.36" etag="qdfesFjlClrGzargpx2z" version="16.2.7" type="github">
  <diagram id="C5RBs43oDa-KdzZeNtuy" name="Page-1">
    <mxGraphModel dx="830" dy="1218" grid="1" gridSize="10" guides="1" tooltips="1" connect="1" arrows="1" fold="1" page="1" pageScale="1" pageWidth="1169" pageHeight="827" math="0" shadow="0">
      <root>
        <mxCell id="WIyWlLk6GJQsqaUBKTNV-0" />
        <mxCell id="WIyWlLk6GJQsqaUBKTNV-1" parent="WIyWlLk6GJQsqaUBKTNV-0" />
        <mxCell id="B4cO1I9yMM5zofiutPqi-1" value="" style="shape=flexArrow;endArrow=classic;html=1;fontFamily=Helvetica;fontSize=11;fontColor=rgb(0, 0, 0);align=center;strokeColor=rgb(0, 0, 0);edgeStyle=orthogonalEdgeStyle;" edge="1" parent="WIyWlLk6GJQsqaUBKTNV-1">
          <mxGeometry relative="1" as="geometry">
            <mxPoint x="160" y="100" as="sourcePoint" />
            <mxPoint x="160" y="100" as="targetPoint" />
          </mxGeometry>
        </mxCell>
        <mxCell id="B4cO1I9yMM5zofiutPqi-0" value="5.20 am&lt;br&gt;the alarm clock is ringing&lt;br&gt;" style="ellipse;whiteSpace=wrap;html=1;aspect=fixed;fillColor=#fad7ac;strokeColor=#b46504;" vertex="1" parent="WIyWlLk6GJQsqaUBKTNV-1">
          <mxGeometry x="212" y="-114" width="80" height="80" as="geometry" />
        </mxCell>
        <mxCell id="B4cO1I9yMM5zofiutPqi-2" value="5.50 am&lt;br&gt;run to the bathroom" style="whiteSpace=wrap;html=1;aspect=fixed;fillColor=#b1ddf0;strokeColor=#10739e;" vertex="1" parent="WIyWlLk6GJQsqaUBKTNV-1">
          <mxGeometry x="767" y="450" width="110" height="110" as="geometry" />
        </mxCell>
        <mxCell id="B4cO1I9yMM5zofiutPqi-3" value="5.30 am&lt;br&gt;the alarm clock is ringing&lt;br&gt;AGAIN" style="whiteSpace=wrap;html=1;aspect=fixed;fillColor=#fad7ac;strokeColor=#b46504;" vertex="1" parent="WIyWlLk6GJQsqaUBKTNV-1">
          <mxGeometry x="212" y="50" width="100" height="100" as="geometry" />
        </mxCell>
        <mxCell id="B4cO1I9yMM5zofiutPqi-4" value="" style="endArrow=classic;html=1;rounded=0;" edge="1" parent="WIyWlLk6GJQsqaUBKTNV-1">
          <mxGeometry width="50" height="50" relative="1" as="geometry">
            <mxPoint x="313" y="99" as="sourcePoint" />
            <mxPoint x="383" y="99" as="targetPoint" />
            <Array as="points">
              <mxPoint x="343" y="99" />
            </Array>
          </mxGeometry>
        </mxCell>
        <mxCell id="B4cO1I9yMM5zofiutPqi-12" value="" style="edgeStyle=orthogonalEdgeStyle;rounded=0;orthogonalLoop=1;jettySize=auto;html=1;" edge="1" parent="WIyWlLk6GJQsqaUBKTNV-1" source="B4cO1I9yMM5zofiutPqi-6" target="B4cO1I9yMM5zofiutPqi-10">
          <mxGeometry relative="1" as="geometry" />
        </mxCell>
        <mxCell id="B4cO1I9yMM5zofiutPqi-6" value="5.31 am&lt;br&gt;I turn on&lt;br&gt;the radio" style="ellipse;whiteSpace=wrap;html=1;aspect=fixed;fillColor=#fad7ac;strokeColor=#b46504;" vertex="1" parent="WIyWlLk6GJQsqaUBKTNV-1">
          <mxGeometry x="384" y="53" width="94" height="94" as="geometry" />
        </mxCell>
        <mxCell id="B4cO1I9yMM5zofiutPqi-7" value="5.55 am&lt;br&gt;having a shower&lt;br&gt;dressing up&lt;br&gt;make up" style="whiteSpace=wrap;html=1;aspect=fixed;fillColor=#b1ddf0;strokeColor=#10739e;" vertex="1" parent="WIyWlLk6GJQsqaUBKTNV-1">
          <mxGeometry x="582" y="451" width="108" height="108" as="geometry" />
        </mxCell>
        <mxCell id="B4cO1I9yMM5zofiutPqi-9" value="5.40 am&lt;br&gt;making &lt;br&gt;a coffee" style="ellipse;whiteSpace=wrap;html=1;aspect=fixed;fillColor=#b1ddf0;strokeColor=#10739e;" vertex="1" parent="WIyWlLk6GJQsqaUBKTNV-1">
          <mxGeometry x="549" y="218" width="132" height="132" as="geometry" />
        </mxCell>
        <mxCell id="B4cO1I9yMM5zofiutPqi-10" value="5.35 am&lt;br&gt;straight &lt;br&gt;to the bathroom" style="ellipse;whiteSpace=wrap;html=1;aspect=fixed;fillColor=#b1ddf0;strokeColor=#10739e;" vertex="1" parent="WIyWlLk6GJQsqaUBKTNV-1">
          <mxGeometry x="549" y="40" width="120" height="120" as="geometry" />
        </mxCell>
        <mxCell id="B4cO1I9yMM5zofiutPqi-40" value="" style="edgeStyle=orthogonalEdgeStyle;curved=1;orthogonalLoop=1;jettySize=auto;html=1;" edge="1" parent="WIyWlLk6GJQsqaUBKTNV-1" source="B4cO1I9yMM5zofiutPqi-16" target="B4cO1I9yMM5zofiutPqi-2">
          <mxGeometry relative="1" as="geometry" />
        </mxCell>
        <mxCell id="B4cO1I9yMM5zofiutPqi-16" value="5.40 am&lt;br&gt;sipping &lt;br&gt;my coffee" style="ellipse;whiteSpace=wrap;html=1;aspect=fixed;fillColor=#b1ddf0;strokeColor=#10739e;" vertex="1" parent="WIyWlLk6GJQsqaUBKTNV-1">
          <mxGeometry x="756" y="218" width="132" height="132" as="geometry" />
        </mxCell>
        <mxCell id="B4cO1I9yMM5zofiutPqi-22" value="&lt;h1&gt;My morning routine&lt;/h1&gt;" style="text;html=1;strokeColor=none;fillColor=none;spacing=5;spacingTop=-20;whiteSpace=wrap;overflow=hidden;rounded=0;" vertex="1" parent="WIyWlLk6GJQsqaUBKTNV-1">
          <mxGeometry x="80" y="-222" width="475" height="50" as="geometry" />
        </mxCell>
        <mxCell id="B4cO1I9yMM5zofiutPqi-24" value="" style="endArrow=classic;html=1;curved=1;" edge="1" parent="WIyWlLk6GJQsqaUBKTNV-1">
          <mxGeometry width="50" height="50" relative="1" as="geometry">
            <mxPoint x="611" y="163" as="sourcePoint" />
            <mxPoint x="611" y="217" as="targetPoint" />
          </mxGeometry>
        </mxCell>
        <mxCell id="B4cO1I9yMM5zofiutPqi-25" value="6.10 am&lt;br&gt;making myself breakfast to take away" style="ellipse;whiteSpace=wrap;html=1;aspect=fixed;fillColor=#b1ddf0;strokeColor=#10739e;" vertex="1" parent="WIyWlLk6GJQsqaUBKTNV-1">
          <mxGeometry x="390" y="450" width="120" height="120" as="geometry" />
        </mxCell>
        <mxCell id="B4cO1I9yMM5zofiutPqi-26" value="6.20 am&lt;br&gt;running out &lt;br&gt;of time" style="whiteSpace=wrap;html=1;aspect=fixed;fillColor=#fad9d5;strokeColor=#ae4132;" vertex="1" parent="WIyWlLk6GJQsqaUBKTNV-1">
          <mxGeometry x="395" y="645" width="100" height="100" as="geometry" />
        </mxCell>
        <mxCell id="B4cO1I9yMM5zofiutPqi-27" value="" style="endArrow=classic;html=1;curved=1;" edge="1" parent="WIyWlLk6GJQsqaUBKTNV-1">
          <mxGeometry width="50" height="50" relative="1" as="geometry">
            <mxPoint x="444.5" y="572" as="sourcePoint" />
            <mxPoint x="444.5" y="642" as="targetPoint" />
            <Array as="points">
              <mxPoint x="444.5" y="622" />
            </Array>
          </mxGeometry>
        </mxCell>
        <mxCell id="B4cO1I9yMM5zofiutPqi-28" value="6.22 am&lt;br&gt;running out &lt;br&gt;" style="whiteSpace=wrap;html=1;aspect=fixed;fillColor=#fad9d5;strokeColor=#ae4132;" vertex="1" parent="WIyWlLk6GJQsqaUBKTNV-1">
          <mxGeometry x="212" y="644" width="100" height="100" as="geometry" />
        </mxCell>
        <mxCell id="B4cO1I9yMM5zofiutPqi-36" value="" style="edgeStyle=segmentEdgeStyle;endArrow=classic;html=1;curved=1;" edge="1" parent="WIyWlLk6GJQsqaUBKTNV-1">
          <mxGeometry width="50" height="50" relative="1" as="geometry">
            <mxPoint x="760" y="520" as="sourcePoint" />
            <mxPoint x="695" y="520" as="targetPoint" />
          </mxGeometry>
        </mxCell>
        <mxCell id="B4cO1I9yMM5zofiutPqi-37" value="" style="edgeStyle=orthogonalEdgeStyle;rounded=0;orthogonalLoop=1;jettySize=auto;html=1;" edge="1" parent="WIyWlLk6GJQsqaUBKTNV-1">
          <mxGeometry relative="1" as="geometry">
            <mxPoint x="683" y="284" as="sourcePoint" />
            <mxPoint x="754" y="284" as="targetPoint" />
          </mxGeometry>
        </mxCell>
        <mxCell id="B4cO1I9yMM5zofiutPqi-38" value="" style="edgeStyle=segmentEdgeStyle;endArrow=classic;html=1;curved=1;" edge="1" parent="WIyWlLk6GJQsqaUBKTNV-1">
          <mxGeometry width="50" height="50" relative="1" as="geometry">
            <mxPoint x="577" y="521" as="sourcePoint" />
            <mxPoint x="512" y="521" as="targetPoint" />
          </mxGeometry>
        </mxCell>
        <mxCell id="B4cO1I9yMM5zofiutPqi-39" value="" style="edgeStyle=segmentEdgeStyle;endArrow=classic;html=1;curved=1;" edge="1" parent="WIyWlLk6GJQsqaUBKTNV-1">
          <mxGeometry width="50" height="50" relative="1" as="geometry">
            <mxPoint x="387" y="698" as="sourcePoint" />
            <mxPoint x="322" y="698" as="targetPoint" />
          </mxGeometry>
        </mxCell>
        <mxCell id="B4cO1I9yMM5zofiutPqi-41" value="" style="edgeStyle=segmentEdgeStyle;endArrow=classic;html=1;curved=1;" edge="1" parent="WIyWlLk6GJQsqaUBKTNV-1">
          <mxGeometry width="50" height="50" relative="1" as="geometry">
            <mxPoint x="254" y="-26" as="sourcePoint" />
            <mxPoint x="254" y="51" as="targetPoint" />
            <Array as="points">
              <mxPoint x="254" y="11" />
              <mxPoint x="254" y="11" />
            </Array>
          </mxGeometry>
        </mxCell>
      </root>
    </mxGraphModel>
  </diagram>
</mxfile>
